<?xml version="1.0" encoding="iso-8859-1"?>
<!-- Uploaded to: SVG Repo, www.svgrepo.com, Generator: SVG Repo Mixer Tools -->
<svg height="800px" width="800px" version="1.1" id="Layer_1" xmlns="http://www.w3.org/2000/svg" xmlns:xlink="http://www.w3.org/1999/xlink" 
	 viewBox="0 0 512 512" xml:space="preserve">
<g transform="translate(0 1)">
	<polygon style="fill:#FF8800;" points="477.867,109.933 503.467,109.933 503.467,7.533 477.867,7.533 	"/>
	<polygon style="fill:#FFFFFF;" points="8.533,502.467 34.133,502.467 34.133,7.533 8.533,7.533 	"/>
	<polygon style="fill:#315ED8;" points="477.867,502.467 503.467,502.467 503.467,109.933 477.867,109.933 	"/>
	<polygon style="fill:#3D83F3;" points="34.133,502.467 477.867,502.467 477.867,109.933 34.133,109.933 	"/>
	<polygon style="fill:#FFE100;" points="34.133,109.933 477.867,109.933 477.867,7.533 34.133,7.533 	"/>
	<path style="fill:#00DA6C;" d="M68.267,58.733c0,14.507-7.68,25.6-17.067,25.6s-17.067-11.093-17.067-25.6s7.68-25.6,17.067-25.6
		S68.267,44.227,68.267,58.733"/>
	<path style="fill:#00AD55;" d="M59.733,33.133c-1.707,0-3.413,0-5.12,0.853c7.68,1.707,13.653,11.947,13.653,24.747
		s-5.973,23.04-13.653,24.747c1.707,0.853,3.413,0.853,5.12,0.853c14.507,0,25.6-11.093,25.6-25.6S74.24,33.133,59.733,33.133"/>
	<path style="fill:#00DA6C;" d="M145.067,58.733c0,14.507-7.68,25.6-17.067,25.6s-17.067-11.093-17.067-25.6s7.68-25.6,17.067-25.6
		S145.067,44.227,145.067,58.733"/>
	<path style="fill:#00AD55;" d="M136.533,33.133c-1.707,0-3.413,0-5.12,0.853c7.68,1.707,13.653,11.947,13.653,24.747
		s-5.973,23.04-13.653,24.747c1.707,0.853,3.413,0.853,5.12,0.853c14.507,0,25.6-11.093,25.6-25.6S151.04,33.133,136.533,33.133"/>
	<path style="fill:#00DA6C;" d="M221.867,58.733c0,14.507-7.68,25.6-17.067,25.6c-9.387,0-17.067-11.093-17.067-25.6
		s7.68-25.6,17.067-25.6C214.187,33.133,221.867,44.227,221.867,58.733"/>
	<path style="fill:#00AD55;" d="M213.333,33.133c-1.707,0-3.413,0-5.12,0.853c7.68,1.707,13.653,11.947,13.653,24.747
		s-5.973,23.04-13.653,24.747c1.707,0.853,3.413,0.853,5.12,0.853c14.507,0,25.6-11.093,25.6-25.6S227.84,33.133,213.333,33.133"/>
	<path d="M512,511H0V229.4c0-5.12,3.413-8.533,8.533-8.533s8.533,3.413,8.533,8.533v264.533h477.867v-42.667
		c0-5.12,3.413-8.533,8.533-8.533c5.12,0,8.533,3.413,8.533,8.533V511z"/>
	<path d="M503.467,383c-5.12,0-8.533-3.413-8.533-8.533v-256H17.067v42.667c0,5.12-3.413,8.533-8.533,8.533S0,166.253,0,161.133
		V101.4h512v273.067C512,379.587,508.587,383,503.467,383z"/>
	<path d="M17.067,195.267c0-5.12-3.413-8.533-8.533-8.533S0,190.147,0,195.267c0,5.12,3.413,8.533,8.533,8.533
		S17.067,200.387,17.067,195.267"/>
	<path d="M503.467,425.667c-5.12,0-8.533-3.413-8.533-8.533V408.6c0-5.12,3.413-8.533,8.533-8.533c5.12,0,8.533,3.413,8.533,8.533
		v8.533C512,422.253,508.587,425.667,503.467,425.667z"/>
	<polygon style="fill:#F9373E;" points="51.2,203.8 401.067,203.8 401.067,152.6 51.2,152.6 	"/>
	<polygon style="fill:#D9283E;" points="401.067,203.8 460.8,203.8 460.8,152.6 401.067,152.6 	"/>
	<path d="M59.733,92.867c-18.773,0-34.133-15.36-34.133-34.133S40.96,24.6,59.733,24.6s34.133,15.36,34.133,34.133
		S78.507,92.867,59.733,92.867z M59.733,41.667c-9.387,0-17.067,7.68-17.067,17.067S50.347,75.8,59.733,75.8S76.8,68.12,76.8,58.733
		S69.12,41.667,59.733,41.667z"/>
	<path d="M136.533,92.867c-18.773,0-34.133-15.36-34.133-34.133S117.76,24.6,136.533,24.6s34.133,15.36,34.133,34.133
		S155.307,92.867,136.533,92.867z M136.533,41.667c-9.387,0-17.067,7.68-17.067,17.067s7.68,17.067,17.067,17.067
		S153.6,68.12,153.6,58.733S145.92,41.667,136.533,41.667z"/>
	<path d="M213.333,92.867c-18.773,0-34.133-15.36-34.133-34.133S194.56,24.6,213.333,24.6s34.133,15.36,34.133,34.133
		S232.107,92.867,213.333,92.867z M213.333,41.667c-9.387,0-17.067,7.68-17.067,17.067s7.68,17.067,17.067,17.067
		S230.4,68.12,230.4,58.733S222.72,41.667,213.333,41.667z"/>
	<path d="M512,118.467H0V-1h512V118.467z M17.067,101.4h477.867V16.067H17.067V101.4z"/>
	<path d="M409.6,212.333H42.667v-68.267H409.6V212.333z M59.733,195.267h332.8v-34.133h-332.8V195.267z"/>
	<path d="M469.333,212.333h-76.8v-68.267h76.8V212.333z M409.6,195.267h42.667v-34.133H409.6V195.267z"/>
	<path d="M315.733,297.667H42.667c-5.12,0-8.533-3.413-8.533-8.533c0-5.12,3.413-8.533,8.533-8.533h273.067
		c5.12,0,8.533,3.413,8.533,8.533C324.267,294.253,320.853,297.667,315.733,297.667z"/>
	<path d="M315.733,331.8H42.667c-5.12,0-8.533-3.413-8.533-8.533c0-5.12,3.413-8.533,8.533-8.533h273.067
		c5.12,0,8.533,3.413,8.533,8.533C324.267,328.387,320.853,331.8,315.733,331.8z"/>
	<path d="M230.4,263.533H42.667c-5.12,0-8.533-3.413-8.533-8.533s3.413-8.533,8.533-8.533H230.4c5.12,0,8.533,3.413,8.533,8.533
		S235.52,263.533,230.4,263.533z"/>
	<path d="M315.733,425.667H42.667c-5.12,0-8.533-3.413-8.533-8.533s3.413-8.533,8.533-8.533h273.067c5.12,0,8.533,3.413,8.533,8.533
		S320.853,425.667,315.733,425.667z"/>
	<path d="M315.733,459.8H42.667c-5.12,0-8.533-3.413-8.533-8.533s3.413-8.533,8.533-8.533h273.067c5.12,0,8.533,3.413,8.533,8.533
		S320.853,459.8,315.733,459.8z"/>
	<path d="M230.4,391.533H42.667c-5.12,0-8.533-3.413-8.533-8.533c0-5.12,3.413-8.533,8.533-8.533H230.4
		c5.12,0,8.533,3.413,8.533,8.533C238.933,388.12,235.52,391.533,230.4,391.533z"/>
</g>
</svg>